<mxfile host="app.diagrams.net" modified="2021-09-16T13:46:02.078Z" agent="5.0 (Windows NT 10.0; Win64; x64) AppleWebKit/537.36 (KHTML, like Gecko) Chrome/91.0.4472.77 Safari/537.36" etag="wCwJFh4grYi2drzqNBQ8" version="15.1.4" type="github">
  <diagram id="tpYhC50Rs1t27i374KJp" name="Page-1">
    <mxGraphModel dx="1038" dy="491" grid="1" gridSize="10" guides="1" tooltips="1" connect="1" arrows="1" fold="1" page="1" pageScale="1" pageWidth="827" pageHeight="1169" math="0" shadow="0">
      <root>
        <mxCell id="0" />
        <mxCell id="1" parent="0" />
        <mxCell id="NJQO8ducK9PdJGZxYN6i-1" value="&lt;b&gt;&lt;font style=&quot;font-size: 18px&quot;&gt;新闻事件检测平台&lt;/font&gt;&lt;/b&gt;" style="rounded=0;whiteSpace=wrap;html=1;" vertex="1" parent="1">
          <mxGeometry x="280" y="120" width="160" height="50" as="geometry" />
        </mxCell>
        <mxCell id="NJQO8ducK9PdJGZxYN6i-2" value="&lt;font style=&quot;font-size: 18px&quot;&gt;系统管理员&lt;/font&gt;" style="rounded=0;whiteSpace=wrap;html=1;" vertex="1" parent="1">
          <mxGeometry x="200" y="200" width="120" height="50" as="geometry" />
        </mxCell>
        <mxCell id="NJQO8ducK9PdJGZxYN6i-3" value="&lt;font style=&quot;font-size: 18px&quot;&gt;普通用户&lt;/font&gt;" style="rounded=0;whiteSpace=wrap;html=1;" vertex="1" parent="1">
          <mxGeometry x="400" y="200" width="120" height="50" as="geometry" />
        </mxCell>
        <mxCell id="NJQO8ducK9PdJGZxYN6i-14" value="&lt;font style=&quot;font-size: 18px&quot;&gt;数据上传与预处理&lt;/font&gt;" style="rounded=0;whiteSpace=wrap;html=1;" vertex="1" parent="1">
          <mxGeometry x="384" y="320" width="30" height="210" as="geometry" />
        </mxCell>
        <mxCell id="NJQO8ducK9PdJGZxYN6i-16" value="&lt;font style=&quot;font-size: 18px&quot;&gt;模型选择&lt;/font&gt;" style="rounded=0;whiteSpace=wrap;html=1;" vertex="1" parent="1">
          <mxGeometry x="450" y="320" width="30" height="210" as="geometry" />
        </mxCell>
        <mxCell id="NJQO8ducK9PdJGZxYN6i-17" value="&lt;font style=&quot;font-size: 18px&quot;&gt;历史记录查询删除&lt;/font&gt;" style="rounded=0;whiteSpace=wrap;html=1;" vertex="1" parent="1">
          <mxGeometry x="510" y="320" width="30" height="210" as="geometry" />
        </mxCell>
        <mxCell id="NJQO8ducK9PdJGZxYN6i-18" value="&lt;font style=&quot;font-size: 18px&quot;&gt;检测结果展示&lt;/font&gt;" style="rounded=0;whiteSpace=wrap;html=1;" vertex="1" parent="1">
          <mxGeometry x="570" y="320" width="30" height="210" as="geometry" />
        </mxCell>
        <mxCell id="NJQO8ducK9PdJGZxYN6i-19" value="&lt;span style=&quot;font-size: 18px&quot;&gt;系统用户管理&lt;/span&gt;" style="rounded=0;whiteSpace=wrap;html=1;" vertex="1" parent="1">
          <mxGeometry x="190" y="320" width="30" height="210" as="geometry" />
        </mxCell>
        <mxCell id="NJQO8ducK9PdJGZxYN6i-20" value="&lt;span style=&quot;font-size: 18px&quot;&gt;模型管理&lt;/span&gt;" style="rounded=0;whiteSpace=wrap;html=1;" vertex="1" parent="1">
          <mxGeometry x="290" y="320" width="30" height="210" as="geometry" />
        </mxCell>
      </root>
    </mxGraphModel>
  </diagram>
</mxfile>
